<?xml version="1.0" encoding="UTF-8" standalone="no"?><!-- Generator: Gravit.io --><svg xmlns="http://www.w3.org/2000/svg" xmlns:xlink="http://www.w3.org/1999/xlink" style="isolation:isolate" viewBox="0 0 50.74 68.19" width="50.74pt" height="68.19pt"><defs><clipPath id="_clipPath_GZPQvQ5EIIRZ4Ln29hFfUtiX5lizdKHs"><rect width="50.74" height="68.19"/></clipPath></defs><g clip-path="url(#_clipPath_GZPQvQ5EIIRZ4Ln29hFfUtiX5lizdKHs)"><g><path d=" M 19.02 47.79 C 19.02 43.06 15.54 39.78 9.56 39.78 L 0 39.78 L 0 55.8 L 9.56 55.8 C 15.45 55.81 19.02 52.72 19.02 47.79 Z " fill="rgb(255,255,255)"/><path d=" M 8.11 12.46 L 0 12.46 L 0 27.23 L 8.3 27.23 C 13.61 27.23 17.08 24.43 17.08 19.8 C 17.09 15.36 14.09 12.46 8.11 12.46 Z " fill="rgb(255,255,255)"/><path d=" M 41.4 0.01 L 41.4 0 L 14.01 0 C 25.48 1.18 32.04 8.53 32.04 18.16 C 32.04 25.21 27.6 31 22 32.83 C 28.18 34.28 34.16 39.97 34.16 48.86 C 34.16 58.82 27.43 66.39 16.85 67.95 C 18.23 68.1 19.63 68.19 21.07 68.19 C 37.82 68.19 50.74 57.77 50.74 38.44 L 50.74 0.01 L 41.4 0.01 Z " fill="rgb(255,255,255)"/></g></g></svg>