<?xml version="1.0" encoding="UTF-8" standalone="no"?><!-- Generator: Gravit.io --><svg xmlns="http://www.w3.org/2000/svg" xmlns:xlink="http://www.w3.org/1999/xlink" style="isolation:isolate" viewBox="0 0 202.33 69.01" width="202.33pt" height="69.01pt"><defs><clipPath id="_clipPath_Ayl0B3AzO5hdTUo4VWmns1KqpiiitB71"><rect width="202.33" height="69.01"/></clipPath></defs><g clip-path="url(#_clipPath_Ayl0B3AzO5hdTUo4VWmns1KqpiiitB71)"><g><path d=" M 19.02 48.61 C 19.02 43.88 15.54 40.6 9.56 40.6 L 0 40.6 L 0 56.62 L 9.56 56.62 C 15.45 56.63 19.02 53.54 19.02 48.61 Z " fill="rgb(255,255,255)"/><path d=" M 8.11 13.28 L 0 13.28 L 0 28.05 L 8.3 28.05 C 13.61 28.05 17.08 25.25 17.08 20.62 C 17.09 16.18 14.09 13.28 8.11 13.28 Z " fill="rgb(255,255,255)"/><path d=" M 41.4 0.83 L 41.4 0.82 L 14.01 0.82 C 25.48 2 32.04 9.35 32.04 18.98 C 32.04 26.03 27.6 31.82 22 33.65 C 28.18 35.1 34.16 40.79 34.16 49.68 C 34.16 59.64 27.43 67.21 16.85 68.77 C 18.23 68.92 19.63 69.01 21.07 69.01 C 37.82 69.01 50.74 58.59 50.74 39.26 L 50.74 0.83 L 41.4 0.83 Z " fill="rgb(255,255,255)"/></g><g><path d=" M 82.9 0.63 C 88.82 0.63 92.24 4.05 92.24 8.66 C 92.24 11.75 90.3 14.28 87.84 15.08 C 90.55 15.71 93.17 18.21 93.17 22.1 C 93.17 27 89.45 30.6 83.79 30.6 L 71.7 30.6 L 71.7 0.63 L 82.9 0.63 Z  M 81.84 12.63 C 84.17 12.63 85.69 11.4 85.69 9.38 C 85.69 7.44 84.38 6.17 81.76 6.17 L 78.21 6.17 L 78.21 12.64 L 81.84 12.64 L 81.84 12.63 Z  M 82.39 25.15 C 84.97 25.15 86.53 23.8 86.53 21.64 C 86.53 19.57 85.01 18.13 82.39 18.13 L 78.21 18.13 L 78.21 25.15 L 82.39 25.15 Z " fill="rgb(255,255,255)"/><path d=" M 97.35 30.6 L 97.35 0 L 103.77 0 L 103.77 30.6 L 97.35 30.6 Z " fill="rgb(255,255,255)"/><path d=" M 130.23 20.07 C 130.23 26.58 125.37 31.23 119.07 31.23 C 112.81 31.23 107.91 26.58 107.91 20.07 C 107.91 13.56 112.81 8.95 119.07 8.95 C 125.37 8.96 130.23 13.57 130.23 20.07 Z  M 123.81 20.07 C 123.81 16.52 121.53 14.87 119.08 14.87 C 116.67 14.87 114.35 16.52 114.35 20.07 C 114.35 23.58 116.68 25.31 119.08 25.31 C 121.52 25.32 123.81 23.62 123.81 20.07 Z " fill="rgb(255,255,255)"/><path d=" M 139.23 20.12 C 139.23 23.46 141.47 25.32 144.13 25.32 C 146.62 25.32 148.02 23.76 148.48 22.19 L 154.14 23.92 C 153.21 27.6 149.74 31.23 144.12 31.23 C 137.86 31.23 132.83 26.62 132.83 20.11 C 132.83 13.56 137.73 8.95 143.9 8.95 C 149.69 8.95 153.07 12.5 154 16.26 L 148.25 17.99 C 147.79 16.38 146.52 14.86 144.02 14.86 C 141.38 14.87 139.23 16.73 139.23 20.12 Z " fill="rgb(255,255,255)"/><path d=" M 171.01 18.43 L 179.38 30.6 L 171.52 30.6 L 166.57 23.2 L 164.5 25.44 L 164.5 30.6 L 158.08 30.6 L 158.08 0 L 164.5 0 L 164.5 16.65 L 170.88 9.59 L 179.21 9.59 L 171.01 18.43 Z " fill="rgb(255,255,255)"/><path d=" M 71.44 57.34 L 71.44 38.2 L 78.12 38.2 L 78.12 56.8 C 78.12 60.44 80.15 62.25 83.32 62.25 C 86.49 62.25 88.52 60.43 88.52 56.8 L 88.52 38.2 L 95.2 38.2 L 95.2 57.35 C 95.2 64.87 89.92 68.85 83.32 68.85 C 76.72 68.85 71.44 64.87 71.44 57.34 Z " fill="rgb(255,255,255)"/><path d=" M 107.24 68.16 L 100.82 68.16 L 100.82 47.16 L 107.03 47.16 L 107.03 49.57 C 108.17 47.58 110.75 46.61 112.91 46.61 C 118.19 46.61 120.56 50.37 120.56 54.98 L 120.56 68.17 L 114.14 68.17 L 114.14 56.07 C 114.14 54 113.04 52.43 110.72 52.43 C 108.61 52.43 107.25 53.99 107.25 56.11 L 107.25 68.16 L 107.24 68.16 Z " fill="rgb(255,255,255)"/><path d=" M 129.13 36.97 C 131.24 36.97 132.93 38.66 132.93 40.73 C 132.93 42.8 131.24 44.49 129.13 44.49 C 127.1 44.49 125.41 42.8 125.41 40.73 C 125.41 38.66 127.1 36.97 129.13 36.97 Z  M 125.96 68.16 L 125.96 47.16 L 132.38 47.16 L 132.38 68.17 L 125.96 68.17 L 125.96 68.16 Z " fill="rgb(255,255,255)"/><path d=" M 141.72 61.23 C 141.8 62.67 142.82 64.06 145.02 64.06 C 146.67 64.06 147.47 63.17 147.47 62.24 C 147.47 61.48 146.96 60.84 145.4 60.51 L 142.99 59.96 C 138.51 58.99 136.73 56.45 136.73 53.49 C 136.73 49.64 140.11 46.52 144.8 46.52 C 150.89 46.52 153 50.32 153.21 52.78 L 147.88 53.75 C 147.71 52.36 146.82 51.17 144.88 51.17 C 143.65 51.17 142.6 51.89 142.6 52.99 C 142.6 53.88 143.32 54.38 144.25 54.55 L 147.04 55.1 C 151.39 55.99 153.51 58.61 153.51 61.69 C 153.51 65.28 150.76 68.79 145.14 68.79 C 138.55 68.79 136.43 64.52 136.26 62.2 L 141.72 61.23 Z " fill="rgb(255,255,255)"/><path d=" M 178.45 57.64 C 178.45 64.15 173.59 68.8 167.29 68.8 C 161.03 68.8 156.13 64.15 156.13 57.64 C 156.13 51.13 161.03 46.52 167.29 46.52 C 173.59 46.52 178.45 51.13 178.45 57.64 Z  M 172.02 57.64 C 172.02 54.09 169.74 52.44 167.29 52.44 C 164.88 52.44 162.56 54.09 162.56 57.64 C 162.56 61.15 164.89 62.88 167.29 62.88 C 169.74 62.88 172.02 61.19 172.02 57.64 Z " fill="rgb(255,255,255)"/><path d=" M 189.01 68.16 L 182.59 68.16 L 182.59 47.16 L 188.8 47.16 L 188.8 49.57 C 189.94 47.58 192.52 46.61 194.68 46.61 C 199.96 46.61 202.33 50.37 202.33 54.98 L 202.33 68.17 L 195.91 68.17 L 195.91 56.07 C 195.91 54 194.81 52.43 192.49 52.43 C 190.38 52.43 189.02 53.99 189.02 56.11 L 189.02 68.16 L 189.01 68.16 Z " fill="rgb(255,255,255)"/></g></g></svg>