<svg height="15.453mm" viewBox="0 0 55.631 15.453" width="55.631mm" xmlns="http://www.w3.org/2000/svg"><g stroke-width=".26458" transform="translate(-10.738 -32.339)"><g><path d="m16.019124 37.578887v-1.508905h2.335701v3.730921h-3.307187q-1.214358 0-2.19618-.428901-.981821-.434068-1.550244-1.297037-.563255-.862969-.563255-2.1135 0-.878471.335886-1.565746.341054-.692443.940482-1.147181.599427-.459906 1.374549-.682107.78029-.22737 1.658762-.22737h2.046322 1.260865v2.222017h-2.335701q-.785457 0-1.162683.04651-.377226.04651-.671773.155025-.294546.108517-.521915.377226-.227369.268709-.263542.950816.02584.661438.263542.945649.237704.284212.578758.377226.341053.09302.702777.129187.361724.03617 1.074836.03617z"/><path d="m22.256273 33.992655-1.069669 2.955799h2.056658zm-4.418196.568423v-2.222017h6.262986l2.495894 7.461842h-2.821445l-.470241-1.343545h-2.216849l-.47024 1.343545h-2.676755l1.720771-5.239825z"/><path d="m26.498774 39.800903v-7.461842h2.428716v5.239826h4.04097v2.222016z"/><path d="m32.555063 39.800903 2.454553-7.461842h3.705083l2.495894 7.461842h-2.821445l-.470241-1.343545h-2.216849l-.47024 1.343545zm4.314846-5.808248-1.069669 2.955799h2.056658z"/><path d="m46.135201 37.578887h2.335702v2.222016h-3.307188q-1.214358 0-2.196179-.428901-.981821-.434068-1.550244-1.297037-.563256-.862969-.563256-2.1135 0-.878471.335887-1.565746.341053-.692443.940481-1.147181.599428-.459906 1.37455-.682107.780289-.22737 1.658761-.22737h2.046322 1.260866v2.222017h-2.335702q-.785457 0-1.162683.04651-.377226.04651-.671772.155025-.294547.108517-.521916.377226-.227369.268709-.263541.950816.02584.661438.263541.945649.237704.284212.578758.377226.341054.09302.702777.129187.361724.03617 1.074836.03617z"/><path d="m55.581356 32.339061v2.222017h-2.366706v5.239825h-2.428716v-5.239825h-2.366706v-2.222017z"/><path d="m55.746713 32.339061h2.428715v7.461842h-2.428715z"/><path d="m63.725305 37.578887h2.335701v2.222016h-3.307188q-1.214358 0-2.196179-.428901-.981821-.434068-1.550244-1.297037-.563256-.862969-.563256-2.1135 0-.878471.335887-1.565746.341053-.692443.940481-1.147181.599428-.459906 1.37455-.682107.78029-.22737 1.658761-.22737h2.046323 1.260865v2.222017h-2.335701q-.785457 0-1.162684.04651-.377226.04651-.671772.155025-.294546.108517-.521916.377226-.227369.268709-.263541.950816.02584.661438.263541.945649.237705.284212.578758.377226.341054.09302.702778.129187.361723.03617 1.074836.03617z"/></g><g><path d="m16.019124 45.435729h2.335701v2.222016h-3.307187q-1.214358 0-2.19618-.428901-.981821-.434068-1.550244-1.297037-.563255-.862969-.563255-2.1135 0-.878471.335886-1.565746.341054-.692443.940482-1.147181.599427-.459906 1.374549-.682107.78029-.22737 1.658762-.22737h2.046322 1.260865v2.222017h-2.335701q-.785457 0-1.162683.04651-.377226.04651-.671773.155025-.294546.108517-.521915.377226-.227369.268709-.263542.950816.02584.661438.263542.945649.237704.284212.578758.377226.341053.09302.702777.129187.361724.03617 1.074836.03617z"/><path d="m28.162182 43.968164q0 1.224693-.51158 2.087662-.511581.86297-1.483067 1.297038-.966319.434068-2.309864.434068-1.343545 0-2.309864-.434068-.961151-.439236-1.457229-1.29187-.496078-.857802-.496078-2.09283 0-.935314.284211-1.643259.284211-.713112.831964-1.198855.547753-.485743 1.343545-.733782.795792-.253207 1.803451-.253207 1.338377 0 2.309864.444403.971486.439236 1.483067 1.302206.51158.857801.51158 2.082494zm-5.916765.02067q0 .71828.320384 1.25053.325551.532251 1.276368.532251.733782 0 1.095505-.279044.366892-.279044.454739-.6356.09301-.361724.124019-.868137-.031-.71828-.346221-1.25053-.315216-.537418-1.328042-.537418-1.596752 0-1.596752 1.787948z"/><path d="m31.871913 40.195903v4.413029q-.03101.754452.289379 1.048998.320384.294547 1.002491.315217.547753-.01033.914644-.320384.366891-.310049.346221-1.043831v-4.413029h2.428716v4.376856q-.0155.930147-.310048 1.488235-.289379.55292-.73895.924979-.444404.372058-1.121344.578758-.671772.206699-1.498569.227369-.687275-.0155-1.400387-.186029-.707945-.175695-1.240195-.547753-.527083-.372059-.816462-.955984-.284212-.583926-.284212-1.524407v-4.382024z"/><path d="m38.413422 47.657745v-7.461842h2.428716l2.222017 2.79044v-2.79044h2.428716v7.461842h-2.428716l-2.222017-2.790439v2.790439z"/><path d="m52.024045 45.435729h2.335701v2.222016h-3.307187q-1.214358 0-2.19618-.428901-.981821-.434068-1.550244-1.297037-.563255-.862969-.563255-2.1135 0-.878471.335886-1.565746.341054-.692443.940482-1.147181.599427-.459906 1.374549-.682107.78029-.22737 1.658762-.22737h2.046322 1.260865v2.222017h-2.335701q-.785457 0-1.162683.04651-.377226.04651-.671773.155025-.294546.108517-.521915.377226-.227369.268709-.263542.950816.02584.661438.263542.945649.237704.284212.578758.377226.341053.09302.702777.129187.361724.03617 1.074836.03617z"/><path d="m55.754445 40.195903h2.428716v7.461842h-2.428716z"/><path d="m59.898246 47.657745v-7.461842h2.428715v5.239826h4.04097v2.222016z"/></g></g></svg>