<svg height="20.224735mm" viewBox="0 0 10.68557 20.224735" width="10.68557mm" xmlns="http://www.w3.org/2000/svg"><g stroke-width=".360746" transform="matrix(1.0288921 0 0 .97191922 -172.30603 -114.61977)"><path d="m174.66835 125.07582v-2.05737h3.1847v5.08706h-4.50931q-1.65577 0-2.99447-.5848-1.3387-.59184-2.11374-1.76849-.76799-1.17665-.76799-2.88174 0-1.19778.45797-2.13487.46503-.94414 1.28234-1.56417.81731-.62708 1.87418-.93005 1.06392-.31001 2.26171-.31001h2.79013 1.71918v3.02969h-3.1847q-1.07097 0-1.58531.0634-.51434.0634-.91595.21138-.40161.14796-.71163.51434-.31001.36638-.35934 1.29643.0352.90186.35934 1.28938.32411.38752.78913.51434.46502.12683.95823.17615.49321.0493 1.46553.0493z"/><path d="m174.66835 135.71075h3.1847v3.0297h-4.50931q-1.65577 0-2.99447-.5848-1.3387-.59185-2.11374-1.7685-.76799-1.17665-.76799-2.88173 0-1.19779.45797-2.13488.46503-.94414 1.28234-1.56417.81731-.62707 1.87418-.93004 1.06392-.31002 2.26171-.31002h2.79013 1.71918v3.0297h-3.1847q-1.07097 0-1.58531.0634-.51434.0634-.91595.21137-.40161.14796-.71163.51435-.31001.36638-.35934 1.29642.0352.90187.35934 1.28938.32411.38752.78913.51435.46502.12682.95823.17614.49321.0493 1.46553.0493z"/></g></svg>