<?xml version="1.0" encoding="UTF-8" standalone="no"?><!-- Generator: Gravit.io --><svg xmlns="http://www.w3.org/2000/svg" xmlns:xlink="http://www.w3.org/1999/xlink" style="isolation:isolate" viewBox="0 0 48 16.388"><g><g><path class="i" d=" M 46.741 11.577 L 46.741 11.577 Q 46.16 11.577 45.821 11.238 L 45.821 11.238 L 45.821 11.238 Q 45.481 10.899 45.481 10.318 L 45.481 10.318 L 45.481 1.261 L 45.481 1.261 Q 45.481 0.696 45.821 0.357 L 45.821 0.357 L 45.821 0.357 Q 46.16 0.018 46.741 0.018 L 46.741 0.018 L 46.741 0.018 Q 47.322 0.018 47.661 0.357 L 47.661 0.357 L 47.661 0.357 Q 48 0.696 48 1.261 L 48 1.261 L 48 10.318 L 48 10.318 Q 48 10.899 47.661 11.238 L 47.661 11.238 L 47.661 11.238 Q 47.322 11.577 46.741 11.577 L 46.741 11.577 L 46.741 11.577 Z " fill="rgb(232,32,68)"/><path class="dot" d=" M 22.632 15.13 C 22.632 14.435 23.196 13.871 23.89 13.871 C 24.585 13.871 25.149 14.435 25.149 15.13 C 25.149 15.824 24.585 16.388 23.89 16.388 C 23.196 16.388 22.632 15.824 22.632 15.13 Z " fill="rgb(232,32,68)"/><path class="p" d=" M 27.413 0.002 C 28.023 0.009 28.627 0.136 29.19 0.373 C 29.751 0.612 30.262 0.955 30.693 1.387 C 31.124 1.818 31.469 2.328 31.706 2.89 C 31.952 3.472 32.079 4.098 32.079 4.731 C 32.079 5.363 31.952 5.989 31.706 6.571 C 31.469 7.133 31.124 7.644 30.693 8.074 C 30.262 8.506 29.751 8.85 29.19 9.088 C 28.627 9.325 28.023 9.452 27.754 9.455 C 26.375 9.459 26.203 9.453 25.337 9.456 C 25.154 9.456 25.148 9.544 25.149 9.708 L 25.149 10.324 C 25.149 11.007 24.595 11.561 23.912 11.561 L 23.869 11.561 C 23.187 11.561 22.632 11.007 22.632 10.324 L 22.632 8.437 C 22.632 7.612 23.301 6.944 24.125 6.944 L 27.37 6.944 C 27.659 6.941 27.944 6.882 28.21 6.77 C 28.472 6.659 28.712 6.497 28.913 6.295 C 29.116 6.093 29.277 5.854 29.389 5.591 C 29.503 5.319 29.562 5.026 29.562 4.731 C 29.562 4.435 29.503 4.143 29.389 3.871 C 29.277 3.608 29.116 3.368 28.913 3.167 C 28.712 2.965 28.484 2.782 28.123 2.691 C 27.59 2.567 25.493 2.529 25.106 2.518 L 25.106 2.518 L 23.869 2.505 C 23.187 2.505 22.632 1.95 22.632 1.268 L 22.632 1.225 C 22.632 0.542 23.187 0 23.869 0 L 25.149 0.001 L 27.413 0.002 L 27.413 0.002 Z " fill="rgb(232,32,68)"/><path class="a" d=" M 9.396 10.883 L 9.396 10.883 Q 9.541 11.222 9.816 11.391 L 9.816 11.391 L 9.816 11.391 Q 10.09 11.561 10.397 11.561 L 10.397 11.561 L 10.397 11.561 Q 10.865 11.561 11.228 11.246 L 11.228 11.246 L 11.228 11.246 Q 11.592 10.931 11.592 10.479 L 11.592 10.479 L 11.592 10.479 Q 11.592 10.253 11.462 9.963 L 11.462 9.963 L 7.104 0.809 L 7.104 0.809 Q 6.91 0.438 6.555 0.228 L 6.555 0.228 L 6.555 0.228 Q 6.199 0.018 5.779 0.018 L 5.779 0.018 L 5.779 0.018 Q 5.376 0.018 5.021 0.219 L 5.021 0.219 L 5.021 0.219 Q 4.665 0.421 4.488 0.809 L 4.488 0.809 L 0.129 9.963 L 0.129 9.963 Q 0 10.253 0 10.479 L 0 10.479 L 0 10.479 Q 0 10.931 0.371 11.246 L 0.371 11.246 L 0.371 11.246 Q 0.743 11.561 1.211 11.561 L 1.211 11.561 L 1.211 11.561 Q 1.534 11.561 1.8 11.391 L 1.8 11.391 L 1.8 11.391 Q 2.066 11.222 2.212 10.883 L 2.212 10.883 L 5.538 3.484 C 5.689 3.148 5.934 3.148 6.085 3.484 L 9.396 10.883 L 9.396 10.883 Z " fill="rgb(232,32,68)"/></g></g></svg>