<svg width="22" height="22" viewBox="0 0 22 22" fill="none" xmlns="http://www.w3.org/2000/svg">
<path fill-rule="evenodd" clip-rule="evenodd" d="M21 3V19C21 20.1046 20.1046 21 19 21H3C1.89543 21 1 20.1046 1 19V3C1 1.89543 1.89543 1 3 1H19C20.1046 1 21 1.89543 21 3ZM12 3H19V19H12V3ZM10 3V19H3V3H10Z" fill="black"/>
<path d="M4 4H9V6H4V4Z" fill="black"/>
<path d="M4 7H9V9H4V7Z" fill="black"/>
<path d="M4 10H9V12H4V10Z" fill="black"/>
<path d="M4 13H9V15H4V13Z" fill="black"/>
<path d="M13 4H18V6H13V4Z" fill="black"/>
<path d="M13 7H18V9H13V7Z" fill="black"/>
<path d="M13 10H18V12H13V10Z" fill="black"/>
</svg>
